<svg width="14" height="15" viewBox="0 0 14 15" fill="none" xmlns="http://www.w3.org/2000/svg">
<g clip-path="url(#clip0_101_935)">
<path d="M5.83337 8.08333C6.08389 8.41824 6.4035 8.69535 6.77053 8.89588C7.13756 9.0964 7.54342 9.21565 7.96059 9.24553C8.37775 9.2754 8.79647 9.21521 9.18833 9.06904C9.58018 8.92286 9.93602 8.69412 10.2317 8.39833L11.9817 6.64833C12.513 6.09824 12.807 5.36148 12.8003 4.59674C12.7937 3.832 12.487 3.10047 11.9462 2.55969C11.4054 2.01892 10.6739 1.71218 9.90913 1.70553C9.14439 1.69889 8.40763 1.99287 7.85754 2.52416L6.85421 3.52166" stroke="#181818" stroke-width="1.5" stroke-linecap="round" stroke-linejoin="round"/>
<path d="M8.16666 6.91666C7.91615 6.58176 7.59654 6.30464 7.22951 6.10412C6.86248 5.90359 6.45661 5.78435 6.03945 5.75447C5.62228 5.72459 5.20357 5.78478 4.81171 5.93096C4.41985 6.07713 4.06401 6.30587 3.76833 6.60166L2.01833 8.35166C1.48703 8.90175 1.19305 9.63851 1.1997 10.4033C1.20634 11.168 1.51308 11.8995 2.05386 12.4403C2.59463 12.9811 3.32617 13.2878 4.09091 13.2945C4.85565 13.3011 5.5924 13.0071 6.14249 12.4758L7.13999 11.4783" stroke="#181818" stroke-width="1.5" stroke-linecap="round" stroke-linejoin="round"/>
</g>
<defs>
<clipPath id="clip0_101_935">
<rect width="14" height="14" fill="white" transform="translate(0 0.5)"/>
</clipPath>
</defs>
</svg>
