<svg width="14" height="15" viewBox="0 0 14 15" fill="none" xmlns="http://www.w3.org/2000/svg">
<g clip-path="url(#clip0_101_940)">
<path d="M12.8333 10.37V12.12C12.834 12.2825 12.8007 12.4433 12.7356 12.5921C12.6705 12.741 12.5751 12.8746 12.4554 12.9844C12.3357 13.0942 12.1943 13.1779 12.0404 13.2299C11.8865 13.282 11.7235 13.3013 11.5617 13.2867C9.76665 13.0916 8.04242 12.4783 6.5275 11.4958C5.11807 10.6002 3.92311 9.40527 3.0275 7.99583C2.04166 6.47404 1.42814 4.74141 1.23667 2.93833C1.22209 2.77702 1.24126 2.61444 1.29296 2.46095C1.34466 2.30745 1.42775 2.1664 1.53695 2.04678C1.64615 1.92716 1.77905 1.83158 1.92721 1.76614C2.07537 1.7007 2.23553 1.66682 2.3975 1.66667H4.1475C4.4306 1.66388 4.70505 1.76413 4.9197 1.94873C5.13434 2.13333 5.27455 2.38968 5.31417 2.67C5.38803 3.23004 5.52501 3.77992 5.7225 4.30917C5.80099 4.51796 5.81797 4.74487 5.77145 4.96301C5.72492 5.18116 5.61684 5.3814 5.46 5.54L4.71917 6.28083C5.54958 7.74124 6.75877 8.95043 8.21917 9.78083L8.96 9.04C9.1186 8.88316 9.31884 8.77508 9.53699 8.72856C9.75513 8.68203 9.98205 8.69902 10.1908 8.7775C10.7201 8.97499 11.27 9.11197 11.83 9.18583C12.1134 9.22581 12.3722 9.36854 12.5571 9.58687C12.7421 9.80521 12.8404 10.0839 12.8333 10.37Z" stroke="#181818" stroke-width="1.5" stroke-linecap="round" stroke-linejoin="round"/>
</g>
<defs>
<clipPath id="clip0_101_940">
<rect width="14" height="14" fill="white" transform="translate(0 0.5)"/>
</clipPath>
</defs>
</svg>
